<svg width="14" height="14" viewBox="0 0 14 14" fill="none" xmlns="http://www.w3.org/2000/svg">
<path d="M13.2997 0.710703C12.9097 0.320703 12.2797 0.320703 11.8897 0.710703L6.99973 5.5907L2.10973 0.700703C1.71973 0.310703 1.08973 0.310703 0.699727 0.700703C0.309727 1.0907 0.309727 1.7207 0.699727 2.1107L5.58973 7.0007L0.699727 11.8907C0.309727 12.2807 0.309727 12.9107 0.699727 13.3007C1.08973 13.6907 1.71973 13.6907 2.10973 13.3007L6.99973 8.4107L11.8897 13.3007C12.2797 13.6907 12.9097 13.6907 13.2997 13.3007C13.6897 12.9107 13.6897 12.2807 13.2997 11.8907L8.40973 7.0007L13.2997 2.1107C13.6797 1.7307 13.6797 1.0907 13.2997 0.710703V0.710703Z" fill="#1C1C1C"/>
</svg>
